#N canvas 407 38 1286 957 12;
#X obj 276 53 osc/unpackOSC;
#X obj 81 140 unpack f f;
#X floatatom 100 186 5 0 0 0 - - -;
#X floatatom 171 186 5 0 0 0 - - -;
#X obj 276 17 iemnet/udpreceive 6449;
#X text 93 7 Listen for OSC message \; from the specified port.;
#X text 29 45 Convert the mess of numbers into \; something that's
human-readable.;
#N canvas 700 237 517 674 open 0;
#X obj 36 294 outlet~;
#X obj 91 294 outlet~;
#X obj 108 124 bng 15 250 50 0 empty empty file 17 7 0 10 -262144 -1
-1;
#X msg 36 64 symbol;
#X obj 36 40 loadbang;
#X obj 28 133 openpanel;
#X obj 108 145 bng 15 250 50 0 empty empty play 17 7 0 10 -4034 -1
-1;
#X obj 108 166 bng 15 250 50 0 empty empty stop 17 7 0 10 -258113 -1
-1;
#X obj 36 204 symbol;
#X obj 35 255 readsf~ 2;
#X obj 108 188 tgl 15 0 \$0-loop \$0-loop loop 17 7 0 10 -262144 -1
-1 0 1;
#X msg 120 227 0;
#X obj 112 256 spigot;
#X msg 35 227 open \$1 \, 1;
#X text 107 104 Player;
#X obj 151 235 r \$0-loop;
#X obj 316 107 inlet;
#X text 280 47 Convenient for \; opening a known \; sound file;
#X connect 2 0 5 0;
#X connect 4 0 3 0;
#X connect 5 0 8 1;
#X connect 6 0 8 0;
#X connect 7 0 11 0;
#X connect 8 0 13 0;
#X connect 9 0 0 0;
#X connect 9 1 1 0;
#X connect 9 2 12 0;
#X connect 11 0 9 0;
#X connect 12 0 8 0;
#X connect 13 0 9 0;
#X connect 15 0 12 1;
#X connect 16 0 8 1;
#X coords 0 -1 1 1 70 110 2 100 100;
#X restore 1153 638 pd open;
#N canvas 537 331 334 485 output 0;
#X obj 109 258 nbx 5 14 -100 0 0 0 \$0-vol \$0-vol Volume 0 -8 0 10
-262144 -1 -1 -100 256;
#X obj 170 257 tgl 15 0 \$0-dsp \$0-dsp DSP 17 7 0 10 -262144 -1 -1
0 1;
#X obj 4 34 inlet~;
#X obj 54 35 inlet~;
#X obj 4 454 dac~;
#X obj 5 420 *~;
#X obj 56 422 *~;
#X obj 71 399 line~;
#X msg 73 377 \$1 50;
#X obj 108 32 loadbang;
#X msg 146 332 \; pd dsp \$1;
#X obj 136 114 vu 15 120 empty empty -1 -8 0 10 -66577 -1 1 0;
#X obj 193 116 vu 15 120 empty empty -1 -8 0 10 -66577 -1 1 0;
#X obj 12 78 env~;
#X obj 60 77 env~;
#X obj 12 99 - 100;
#X obj 61 102 - 100;
#X obj 110 110 vsl 15 128 0 1 0 0 \$0-fader \$0-fader empty 0 -9 0
10 -262144 -1 -1 0 1;
#X obj 146 309 r \$0-dsp;
#X msg 108 53 0;
#X obj 108 74 s \$0-fader;
#X obj 74 309 r \$0-fader;
#X obj 73 329 pow 2;
#X obj 116 378 rmstodb;
#X obj 116 399 - 100;
#X obj 116 420 s \$0-vol;
#X obj 73 350 t f f;
#X connect 2 0 5 0;
#X connect 2 0 13 0;
#X connect 3 0 6 0;
#X connect 3 0 14 0;
#X connect 5 0 4 0;
#X connect 6 0 4 1;
#X connect 7 0 5 1;
#X connect 7 0 6 1;
#X connect 8 0 7 0;
#X connect 9 0 19 0;
#X connect 13 0 15 0;
#X connect 14 0 16 0;
#X connect 15 0 11 0;
#X connect 16 0 12 0;
#X connect 18 0 10 0;
#X connect 19 0 20 0;
#X connect 21 0 22 0;
#X connect 22 0 26 0;
#X connect 23 0 24 0;
#X connect 24 0 25 0;
#X connect 26 0 8 0;
#X connect 26 1 23 0;
#X coords 0 -1 1 1 150 180 2 100 100;
#X restore 37 651 pd output;
#X text 99 165 pos_x;
#X text 167 165 pos_y;
#X obj 246 416 hsl 128 15 0 1 0 0 empty empty Elevation_(Down=0.25_Up=0.75)
-2 -8 0 10 -262144 -1 -1 0 1;
#X obj 243 437 nbx 5 14 -1e+037 1e+037 0 0 empty empty empty 0 -8 0
10 -262144 -1 -1 0 256;
#X msg 208 418 0.5;
#X msg 243 457 param_set 7 \$1;
#N canvas 669 453 772 436 degree_to_decimal 0;
#X obj 92 120 hsl 180 15 -180 180 0 0 empty empty Degree -2 -8 0 10
-262144 -1 -1 0 1;
#X obj 92 160 hsl 180 15 0 1 0 0 empty empty Decimal -2 -8 0 10 -262144
-1 -1 0 1;
#X obj 139 103 nbx 5 14 -1e+037 1e+037 0 0 empty empty empty 0 -8 0
10 -262144 -1 -1 0 256;
#X obj 139 143 nbx 5 14 -1e+037 1e+037 0 0 empty empty empty 0 -8 0
10 -262144 -1 -1 0 256;
#X obj 286 104 - 180;
#X obj 286 81 * 360;
#X text 256 44 Decimal \; to degrees;
#X text 35 42 Degree \; to decimal;
#X obj 37 101 / 360;
#X obj 37 78 + 180;
#X connect 0 0 2 0;
#X connect 0 0 9 0;
#X connect 1 0 3 0;
#X connect 5 0 4 0;
#X connect 8 0 1 0;
#X connect 9 0 8 0;
#X coords 0 -1 1 1 200 100 1 80 80;
#X restore 924 752 pd degree_to_decimal;
#X obj 104 320 hsl 128 15 1 0 0 0 empty empty Azimuth_(Left=0.75_Right=0.25)
-2 -8 0 10 -262144 -1 -1 0 1;
#X obj 101 341 nbx 5 14 -1e+037 1e+037 0 0 empty empty empty 0 -8 0
10 -262144 -1 -1 0 256;
#X msg 66 322 0.5;
#X msg 101 361 param_set 6 \$1;
#X obj 722 9 loadbang;
#X obj 766 38 bng 15 250 50 0 empty empty empty 17 7 0 10 -262144 -1
-1;
#X obj 766 63 delay 300;
#X obj 435 760 s~ dac_L;
#X obj 512 760 s~ dac_R;
#X obj 38 627 r~ dac_L;
#X obj 127 627 r~ dac_R;
#X obj 844 553 s~ plugin_L;
#X obj 855 586 s~ plugin_R;
#X obj 299 642 r~ plugin_L;
#X obj 412 642 r~ plugin_R;
#X obj 273 666 vstplugin~ -e StereoEncoder 2 16;
#X obj 261 707 vstplugin~ -e BinauralDecoder 16 2;
#X obj 276 87 osc/routeOSC /player /enemy;
#X text 80 111 /player stuff;
#X obj 430 141 unpack f f;
#X floatatom 442 186 5 0 0 0 - - -;
#X floatatom 513 186 5 0 0 0 - - -;
#X text 442 165 pos_x;
#X text 513 165 pos_y;
#X obj 588 410 hsl 128 15 0 1 0 0 empty empty Elevation_(Down=0.25_Up=0.75)
-2 -8 0 10 -262144 -1 -1 0 1;
#X obj 585 431 nbx 5 14 -1e+037 1e+037 0 0 empty empty empty 0 -8 0
10 -262144 -1 -1 0 256;
#X msg 550 412 0.5;
#X msg 585 451 param_set 7 \$1;
#X obj 445 316 hsl 128 15 1 0 0 0 empty empty Azimuth_(Left=0.75_Right=0.25)
-2 -8 0 10 -262144 -1 -1 0 1;
#X obj 442 337 nbx 5 14 -1e+037 1e+037 0 0 empty empty empty 0 -8 0
10 -262144 -1 -1 0 256;
#X msg 407 318 0.5;
#X msg 442 357 param_set 6 \$1;
#X text 421 114 /enemy stuff;
#X obj 101 386 s param_player;
#X obj 243 482 s param_player;
#X obj 273 605 r param_player;
#X obj 539 666 vstplugin~ -e StereoEncoder 2 16;
#X obj 527 707 vstplugin~ -e BinauralDecoder 16 2;
#X obj 442 382 s param_enemy;
#X obj 585 476 s param_enemy;
#X obj 539 608 r param_enemy;
#X obj 564 642 r~ plugin_L2;
#X obj 678 642 r~ plugin_R2;
#N canvas 700 237 517 674 open 0;
#X obj 36 294 outlet~;
#X obj 91 294 outlet~;
#X obj 108 124 bng 15 250 50 0 empty empty file 17 7 0 10 -262144 -1
-1;
#X msg 36 64 symbol;
#X obj 36 40 loadbang;
#X obj 28 133 openpanel;
#X obj 108 145 bng 15 250 50 0 empty empty play 17 7 0 10 -4034 -1
-1;
#X obj 108 166 bng 15 250 50 0 empty empty stop 17 7 0 10 -258113 -1
-1;
#X obj 36 204 symbol;
#X obj 35 255 readsf~ 2;
#X obj 108 188 tgl 15 0 \$0-loop \$0-loop loop 17 7 0 10 -262144 -1
-1 0 1;
#X msg 120 227 0;
#X obj 112 256 spigot;
#X msg 35 227 open \$1 \, 1;
#X text 107 104 Player;
#X obj 151 235 r \$0-loop;
#X obj 316 107 inlet;
#X text 280 47 Convenient for \; opening a known \; sound file;
#X connect 2 0 5 0;
#X connect 4 0 3 0;
#X connect 5 0 8 1;
#X connect 6 0 8 0;
#X connect 7 0 11 0;
#X connect 8 0 13 0;
#X connect 9 0 0 0;
#X connect 9 1 1 0;
#X connect 9 2 12 0;
#X connect 11 0 9 0;
#X connect 12 0 8 0;
#X connect 13 0 9 0;
#X connect 15 0 12 1;
#X connect 16 0 8 1;
#X coords 0 -1 1 1 70 110 2 100 100;
#X restore 900 433 pd open;
#X obj 955 587 s~ plugin_L2;
#X obj 940 553 s~ plugin_R2;
#X msg 900 407 symbol LOOP_test_stereo.wav;
#X text 685 788 The StereoEncoder parameters \; are 0 to 1 rather than
in \; degrees so I cmade a handy \; little converter for reference.
;
#X text 486 9 Bangs the values into all the \; pd in_to_out subpatches.
I use \; a delay so the loadbang sends \; "two" bangs instead of one.
;
#X text 981 444 I made a stereo track such that \; there's no inteference
between the \; left and right parts. In other \; words \, each side
is like its own track.;
#X text 350 549 I may be using send and receive \; objects a little
too much \, but \; I really like being able to move \; things freely.
;
#X text 921 660 I have a second file player \; subpatch for playing
a second \; audio file. Right now it's not \; being used. \; This Player
ubpatch is directly \; from the [vstplugin~] help file.;
#X obj 722 91 s bounds;
#X text 984 168 azimuth_right;
#X text 970 145 azimuth_left;
#X text 948 98 game_left;
#X text 955 121 game_right;
#X text 1207 168 elevation_high;
#X text 1186 145 elevation_low;
#X text 1164 121 game_high;
#X text 1161 98 game_low;
#X msg 935 146 0.75;
#X msg 949 169 0.25;
#X msg 1151 146 0.25;
#X msg 1174 169 0.75;
#X msg 1136 122 120;
#X msg 1123 99 -140;
#X msg 912 99 -110;
#X msg 924 122 110;
#X obj 912 212 pack f f f f f f f f;
#X obj 1047 63 r bounds;
#X text 965 14 Left/right/high/low bounds for \; the game's XY values
and the \; plugin's to azimuth and elevation;
#N canvas 362 325 998 681 calc_slope_y-int 0;
#X obj 47 202 -;
#X obj 78 202 -;
#X obj 47 233 /;
#X obj 146 383 nbx 5 14 -1e+037 1e+037 0 0 empty empty Azi_slope 0
-8 0 10 -262144 -1 -1 -0.00227273 256;
#X obj 146 414 nbx 5 14 -1e+037 1e+037 0 0 empty empty Azi_y-int 0
-8 0 10 -262144 -1 -1 0.5 256;
#X obj 109 202 *;
#X obj 109 233 -;
#X obj 172 202 -;
#X obj 203 202 -;
#X obj 172 233 /;
#X obj 220 383 nbx 5 14 -1e+037 1e+037 0 0 empty empty Ele_slope 0
-8 0 10 -262144 -1 -1 0.00192308 256;
#X obj 220 414 nbx 5 14 -1e+037 1e+037 0 0 empty empty Ele_y-int 0
-8 0 10 -262144 -1 -1 0.519231 256;
#X obj 234 202 *;
#X obj 234 233 -;
#X obj 65 147 unpack f f f f f f f f;
#X text 125 85 game \; left \; bound;
#X text 176 85 game \; right \; bound;
#X text 225 85 azimuth \; left \; bound;
#X text 284 85 azimuth \; right \; bound;
#X text 366 85 game \; low \; bound;
#X text 420 85 game \; high \; bound;
#X text 466 99 elevation \; low bound;
#X text 542 99 elevation \; high bound;
#X obj 65 19 inlet;
#X text 126 12 <- This inlet should receive a [pack] of the following
parameters AND in the order they are shown. Also \, make sure to bang
the received [pack] of parameters TWICE to update the calculated linear
relationships.;
#X obj 104 293 outlet;
#X obj 104 263 pack f f f f;
#X text 206 270 Calculates the slopes and y-intercepts \; These calculated
values will then be sent \; to the [XY_to_AziEle] subpatches.;
#X connect 0 0 2 1;
#X connect 1 0 2 0;
#X connect 2 0 3 0;
#X connect 2 0 5 0;
#X connect 2 0 26 0;
#X connect 5 0 6 1;
#X connect 6 0 4 0;
#X connect 6 0 26 1;
#X connect 7 0 9 1;
#X connect 8 0 9 0;
#X connect 9 0 10 0;
#X connect 9 0 12 0;
#X connect 9 0 26 2;
#X connect 12 0 13 1;
#X connect 13 0 11 0;
#X connect 13 0 26 3;
#X connect 14 0 0 1;
#X connect 14 1 0 0;
#X connect 14 1 5 1;
#X connect 14 2 1 1;
#X connect 14 3 1 0;
#X connect 14 3 6 0;
#X connect 14 4 7 1;
#X connect 14 5 7 0;
#X connect 14 5 12 1;
#X connect 14 6 8 1;
#X connect 14 7 8 0;
#X connect 14 7 13 0;
#X connect 23 0 14 0;
#X connect 26 0 25 0;
#X coords 0 -1 1 1 140 85 1 140 350;
#X restore 912 240 pd calc_slope_y-int;
#X text 1060 213 The boundary values are packed and sent to \; the
[calc_slope_y-int] subpatch.;
#X obj 912 334 s values;
#N canvas 308 339 764 254 XY_to_AziEle 0;
#X obj 94 50 inlet;
#X obj 94 130 nbx 5 14 -1e+037 1e+037 0 0 empty empty Input_X 0 -8
0 10 -262144 -1 -1 0 256;
#X obj 94 160 nbx 5 14 -1e+037 1e+037 0 0 empty empty Azimuth 0 -8
0 10 -262144 -1 -1 0 256;
#X obj 266 133 *;
#X obj 286 157 +;
#X obj 286 209 outlet;
#X text 77 16 game \; X_position;
#X obj 164 50 inlet;
#X obj 164 130 nbx 5 14 -1e+037 1e+037 0 0 empty empty Input_Y 0 -8
0 10 -262144 -1 -1 0 256;
#X obj 164 160 nbx 5 14 -1e+037 1e+037 0 0 empty empty Elevation 0
-8 0 10 -262144 -1 -1 0 256;
#X obj 330 133 *;
#X obj 350 157 +;
#X obj 350 209 outlet;
#X text 157 16 game \; Y_position;
#X obj 105 75 s x_pos;
#X obj 175 75 s y_pos;
#X obj 266 106 r x_pos;
#X obj 330 106 r y_pos;
#X obj 284 30 inlet;
#X obj 360 184 s ele;
#X obj 296 184 s azi;
#X obj 94 192 r azi;
#X obj 164 192 r ele;
#X obj 284 74 unpack f f f f;
#X text 558 69 (Y to Elevation) \; slope y-int;
#X text 428 69 (X to Azimuth) \; slope y-int;
#X text 345 23 <- This inlet should receive a [pack] of the following
parameters AND in the order they are shown.;
#X connect 0 0 14 0;
#X connect 0 0 1 0;
#X connect 3 0 4 0;
#X connect 4 0 5 0;
#X connect 4 0 20 0;
#X connect 7 0 15 0;
#X connect 7 0 8 0;
#X connect 10 0 11 0;
#X connect 11 0 12 0;
#X connect 11 0 19 0;
#X connect 16 0 3 0;
#X connect 17 0 10 0;
#X connect 18 0 23 0;
#X connect 21 0 2 0;
#X connect 22 0 9 0;
#X connect 23 0 3 1;
#X connect 23 1 4 1;
#X connect 23 2 10 1;
#X connect 23 3 11 1;
#X coords 0 -1 1 1 150 80 1 80 100;
#X restore 100 213 pd XY_to_AziEle;
#N canvas 308 339 764 254 XY_to_AziEle 0;
#X obj 94 50 inlet;
#X obj 94 130 nbx 5 14 -1e+037 1e+037 0 0 empty empty Input_X 0 -8
0 10 -262144 -1 -1 0 256;
#X obj 94 160 nbx 5 14 -1e+037 1e+037 0 0 empty empty Azimuth 0 -8
0 10 -262144 -1 -1 0 256;
#X obj 266 133 *;
#X obj 286 157 +;
#X obj 286 209 outlet;
#X text 77 16 game \; X_position;
#X obj 164 50 inlet;
#X obj 164 130 nbx 5 14 -1e+037 1e+037 0 0 empty empty Input_Y 0 -8
0 10 -262144 -1 -1 0 256;
#X obj 164 160 nbx 5 14 -1e+037 1e+037 0 0 empty empty Elevation 0
-8 0 10 -262144 -1 -1 0 256;
#X obj 330 133 *;
#X obj 350 157 +;
#X obj 350 209 outlet;
#X text 157 16 game \; Y_position;
#X obj 105 75 s x_pos;
#X obj 175 75 s y_pos;
#X obj 266 106 r x_pos;
#X obj 330 106 r y_pos;
#X obj 284 30 inlet;
#X obj 360 184 s ele;
#X obj 296 184 s azi;
#X obj 94 192 r azi;
#X obj 164 192 r ele;
#X obj 284 74 unpack f f f f;
#X text 558 69 (Y to Elevation) \; slope y-int;
#X text 428 69 (X to Azimuth) \; slope y-int;
#X text 345 23 <- This inlet should receive a [pack] of the following
parameters AND in the order they are shown.;
#X connect 0 0 14 0;
#X connect 0 0 1 0;
#X connect 3 0 4 0;
#X connect 4 0 5 0;
#X connect 4 0 20 0;
#X connect 7 0 15 0;
#X connect 7 0 8 0;
#X connect 10 0 11 0;
#X connect 11 0 12 0;
#X connect 11 0 19 0;
#X connect 16 0 3 0;
#X connect 17 0 10 0;
#X connect 18 0 23 0;
#X connect 21 0 2 0;
#X connect 22 0 9 0;
#X connect 23 0 3 1;
#X connect 23 1 4 1;
#X connect 23 2 10 1;
#X connect 23 3 11 1;
#X coords 0 -1 1 1 150 80 1 80 100;
#X restore 442 213 pd XY_to_AziEle;
#X obj 243 186 r values;
#X obj 585 186 r values;
#X text 32 839 This output subpatch is directly from \; the [vstplugin~]
help file.;
#X text 784 37 Manual bang \;;
#X connect 0 0 33 0;
#X connect 1 0 2 0;
#X connect 1 1 3 0;
#X connect 2 0 91 0;
#X connect 3 0 91 1;
#X connect 4 0 0 0;
#X connect 11 0 12 0;
#X connect 12 0 14 0;
#X connect 13 0 12 0;
#X connect 14 0 50 0;
#X connect 16 0 17 0;
#X connect 17 0 19 0;
#X connect 18 0 17 0;
#X connect 19 0 49 0;
#X connect 20 0 22 0;
#X connect 20 0 68 0;
#X connect 21 0 22 0;
#X connect 21 0 68 0;
#X connect 22 0 68 0;
#X connect 25 0 8 0;
#X connect 26 0 8 1;
#X connect 29 0 31 0;
#X connect 30 0 31 1;
#X connect 31 0 32 0;
#X connect 31 1 32 1;
#X connect 31 2 32 2;
#X connect 31 3 32 3;
#X connect 31 4 32 4;
#X connect 31 5 32 5;
#X connect 31 6 32 6;
#X connect 31 7 32 7;
#X connect 31 8 32 8;
#X connect 31 9 32 9;
#X connect 31 10 32 10;
#X connect 31 11 32 11;
#X connect 31 12 32 12;
#X connect 31 13 32 13;
#X connect 31 14 32 14;
#X connect 31 15 32 15;
#X connect 32 0 23 0;
#X connect 32 1 24 0;
#X connect 33 0 1 0;
#X connect 33 1 35 0;
#X connect 35 0 36 0;
#X connect 35 1 37 0;
#X connect 36 0 92 0;
#X connect 37 0 92 1;
#X connect 40 0 41 0;
#X connect 41 0 43 0;
#X connect 42 0 41 0;
#X connect 43 0 55 0;
#X connect 44 0 45 0;
#X connect 45 0 47 0;
#X connect 46 0 45 0;
#X connect 47 0 54 0;
#X connect 51 0 31 0;
#X connect 52 0 53 0;
#X connect 52 1 53 1;
#X connect 52 2 53 2;
#X connect 52 3 53 3;
#X connect 52 4 53 4;
#X connect 52 5 53 5;
#X connect 52 6 53 6;
#X connect 52 7 53 7;
#X connect 52 8 53 8;
#X connect 52 9 53 9;
#X connect 52 10 53 10;
#X connect 52 11 53 11;
#X connect 52 12 53 12;
#X connect 52 13 53 13;
#X connect 52 14 53 14;
#X connect 52 15 53 15;
#X connect 53 0 23 0;
#X connect 53 1 24 0;
#X connect 56 0 52 0;
#X connect 57 0 52 0;
#X connect 58 0 52 1;
#X connect 59 0 27 0;
#X connect 59 0 28 0;
#X connect 59 1 61 0;
#X connect 59 1 60 0;
#X connect 62 0 59 0;
#X connect 77 0 85 2;
#X connect 78 0 85 3;
#X connect 79 0 85 6;
#X connect 80 0 85 7;
#X connect 81 0 85 5;
#X connect 82 0 85 4;
#X connect 83 0 85 0;
#X connect 84 0 85 1;
#X connect 85 0 88 0;
#X connect 86 0 83 0;
#X connect 86 0 84 0;
#X connect 86 0 77 0;
#X connect 86 0 78 0;
#X connect 86 0 82 0;
#X connect 86 0 81 0;
#X connect 86 0 79 0;
#X connect 86 0 80 0;
#X connect 88 0 90 0;
#X connect 91 0 16 0;
#X connect 91 1 11 0;
#X connect 92 0 44 0;
#X connect 92 1 40 0;
#X connect 93 0 91 2;
#X connect 94 0 92 2;
