#N canvas 605 1 1286 957 12;
#X obj 276 53 osc/unpackOSC;
#X obj 81 140 unpack f f;
#X floatatom 24 184 5 0 0 0 - - -;
#X floatatom 358 184 5 0 0 0 - - -;
#X obj 276 17 iemnet/udpreceive 6449;
#X text 93 7 Listen for OSC message \; from the specified port.;
#X text 29 45 Convert the mess of numbers into \; something that's
human-readable.;
#N canvas 700 237 517 674 open 0;
#X obj 36 294 outlet~;
#X obj 91 294 outlet~;
#X obj 108 124 bng 15 250 50 0 empty empty file 17 7 0 10 -262144 -1
-1;
#X msg 36 64 symbol;
#X obj 36 40 loadbang;
#X obj 28 133 openpanel;
#X obj 108 145 bng 15 250 50 0 empty empty play 17 7 0 10 -4034 -1
-1;
#X obj 108 166 bng 15 250 50 0 empty empty stop 17 7 0 10 -258113 -1
-1;
#X obj 36 204 symbol;
#X obj 35 255 readsf~ 2;
#X obj 108 188 tgl 15 0 \$0-loop \$0-loop loop 17 7 0 10 -262144 -1
-1 0 1;
#X msg 120 227 0;
#X obj 112 256 spigot;
#X msg 35 227 open \$1 \, 1;
#X text 107 104 Player;
#X obj 151 235 r \$0-loop;
#X obj 316 107 inlet;
#X text 280 47 Convenient for \; opening a known \; sound file;
#X connect 2 0 5 0;
#X connect 4 0 3 0;
#X connect 5 0 8 1;
#X connect 6 0 8 0;
#X connect 7 0 11 0;
#X connect 8 0 13 0;
#X connect 9 0 0 0;
#X connect 9 1 1 0;
#X connect 9 2 12 0;
#X connect 11 0 9 0;
#X connect 12 0 8 0;
#X connect 13 0 9 0;
#X connect 15 0 12 1;
#X connect 16 0 8 1;
#X coords 0 -1 1 1 70 110 2 100 100;
#X restore 336 622 pd open;
#N canvas 537 331 334 485 output 0;
#X obj 109 258 nbx 5 14 -100 0 0 0 \$0-vol \$0-vol Volume 0 -8 0 10
-262144 -1 -1 -100 256;
#X obj 170 257 tgl 15 0 \$0-dsp \$0-dsp DSP 17 7 0 10 -262144 -1 -1
0 1;
#X obj 4 34 inlet~;
#X obj 54 35 inlet~;
#X obj 4 454 dac~;
#X obj 5 420 *~;
#X obj 56 422 *~;
#X obj 71 399 line~;
#X msg 73 377 \$1 50;
#X obj 108 32 loadbang;
#X msg 146 332 \; pd dsp \$1;
#X obj 136 114 vu 15 120 empty empty -1 -8 0 10 -66577 -1 1 0;
#X obj 193 116 vu 15 120 empty empty -1 -8 0 10 -66577 -1 1 0;
#X obj 12 78 env~;
#X obj 60 77 env~;
#X obj 12 99 - 100;
#X obj 61 102 - 100;
#X obj 110 110 vsl 15 128 0 1 0 0 \$0-fader \$0-fader empty 0 -9 0
10 -262144 -1 -1 0 1;
#X obj 146 309 r \$0-dsp;
#X msg 108 53 0;
#X obj 108 74 s \$0-fader;
#X obj 74 309 r \$0-fader;
#X obj 73 329 pow 2;
#X obj 116 378 rmstodb;
#X obj 116 399 - 100;
#X obj 116 420 s \$0-vol;
#X obj 73 350 t f f;
#X connect 2 0 5 0;
#X connect 2 0 13 0;
#X connect 3 0 6 0;
#X connect 3 0 14 0;
#X connect 5 0 4 0;
#X connect 6 0 4 1;
#X connect 7 0 5 1;
#X connect 7 0 6 1;
#X connect 8 0 7 0;
#X connect 9 0 19 0;
#X connect 13 0 15 0;
#X connect 14 0 16 0;
#X connect 15 0 11 0;
#X connect 16 0 12 0;
#X connect 18 0 10 0;
#X connect 19 0 20 0;
#X connect 21 0 22 0;
#X connect 22 0 26 0;
#X connect 23 0 24 0;
#X connect 24 0 25 0;
#X connect 26 0 8 0;
#X connect 26 1 23 0;
#X coords 0 -1 1 1 150 180 2 100 100;
#X restore 640 803 pd output;
#X text 254 193 azimuth_right;
#X text 202 210 azimuth_left;
#X text 98 210 game_left;
#X text 147 193 game_right;
#X obj 67 217 bng 15 250 50 0 empty empty empty 17 7 0 10 -262144 -1
-1;
#X text 28 163 pos_x;
#X text 354 161 pos_y;
#X obj 454 377 hsl 128 15 0 1 0 0 empty empty Elevation_(Down=0.25_Up=0.75)
-2 -8 0 10 -262144 -1 -1 0 1;
#X obj 451 398 nbx 5 14 -1e+037 1e+037 0 0 empty empty empty 0 -8 0
10 -262144 -1 -1 0 256;
#X obj 400 213 bng 15 250 50 0 empty empty empty 17 7 0 10 -262144
-1 -1;
#X text 551 187 elevation_high;
#X text 507 205 elevation_low;
#X text 468 187 game_high;
#X text 423 205 game_low;
#N canvas 236 248 692 418 in_to_out 0;
#X obj 187 149 inlet;
#X obj 391 130 -;
#X obj 463 132 -;
#X text 283 166 Slope calculation;
#X obj 422 166 /;
#X obj 335 244 nbx 5 14 -1e+037 1e+037 0 0 empty empty Slope 0 -8 0
10 -262144 -1 -1 0.00192308 256;
#X obj 332 279 nbx 5 14 -1e+037 1e+037 0 0 empty empty Y-intercept
0 -8 0 10 -262144 -1 -1 0.519231 256;
#X text 503 198 Y-intercept \; calculation;
#X obj 474 193 *;
#X obj 438 218 -;
#X obj 211 242 nbx 5 14 -1e+037 1e+037 0 0 empty empty Input 0 -8 0
10 -262144 -1 -1 0 256;
#X obj 211 277 nbx 5 14 -1e+037 1e+037 0 0 empty empty Output 0 -8
0 10 -262144 -1 -1 0 256;
#X obj 291 309 *;
#X obj 305 336 +;
#X obj 203 328 outlet;
#X text 176 127 game_value;
#X text 24 24 To recalculate the slope and \; y-intercept \, make sure
to send \; a bang to all the inlets a few times.;
#X floatatom 298 130 5 0 0 0 - - -;
#X obj 308 88 inlet;
#X obj 387 88 inlet;
#X obj 479 87 inlet;
#X obj 569 88 inlet;
#X text 301 64 input_x1;
#X text 387 66 input_x2;
#X text 569 66 output_y2;
#X text 479 65 output_y1;
#X connect 0 0 10 0;
#X connect 1 0 4 1;
#X connect 2 0 4 0;
#X connect 4 0 5 0;
#X connect 4 0 8 0;
#X connect 5 0 12 1;
#X connect 6 0 13 1;
#X connect 8 0 9 1;
#X connect 9 0 6 0;
#X connect 10 0 12 0;
#X connect 11 0 14 0;
#X connect 12 0 13 0;
#X connect 13 0 11 0;
#X connect 18 0 1 1;
#X connect 18 0 17 0;
#X connect 19 0 1 0;
#X connect 19 0 8 1;
#X connect 20 0 2 1;
#X connect 21 0 2 0;
#X connect 21 0 9 0;
#X coords 0 -1 1 1 200 100 1 200 200;
#X restore 403 256 pd in_to_out;
#X msg 416 379 0.5;
#X msg 451 418 param_set 7 \$1;
#N canvas 669 453 772 436 degree_to_decimal 0;
#X obj 92 120 hsl 180 15 -180 180 0 0 empty empty Degree -2 -8 0 10
-262144 -1 -1 8149 1;
#X obj 92 160 hsl 180 15 0 1 0 0 empty empty Decimal -2 -8 0 10 -262144
-1 -1 8100 1;
#X obj 139 103 nbx 5 14 -1e+037 1e+037 0 0 empty empty empty 0 -8 0
10 -262144 -1 -1 -17.095 256;
#X obj 139 143 nbx 5 14 -1e+037 1e+037 0 0 empty empty empty 0 -8 0
10 -262144 -1 -1 0.452514 256;
#X obj 286 104 - 180;
#X obj 286 81 * 360;
#X text 256 44 Decimal \; to degrees;
#X text 35 42 Degree \; to decimal;
#X obj 37 101 / 360;
#X obj 37 78 + 180;
#X connect 0 0 2 0;
#X connect 0 0 9 0;
#X connect 1 0 3 0;
#X connect 5 0 4 0;
#X connect 8 0 1 0;
#X connect 9 0 8 0;
#X coords 0 -1 1 1 200 100 1 80 80;
#X restore 40 695 pd degree_to_decimal;
#N canvas 274 337 674 429 in_to_out 0;
#X obj 187 149 inlet;
#X obj 391 130 -;
#X obj 463 132 -;
#X text 283 166 Slope calculation;
#X obj 422 166 /;
#X obj 335 244 nbx 5 14 -1e+037 1e+037 0 0 empty empty Slope 0 -8 0
10 -262144 -1 -1 -0.00227273 256;
#X obj 332 279 nbx 5 14 -1e+037 1e+037 0 0 empty empty Y-intercept
0 -8 0 10 -262144 -1 -1 0.5 256;
#X text 503 198 Y-intercept \; calculation;
#X obj 474 193 *;
#X obj 438 218 -;
#X obj 211 242 nbx 5 14 -1e+037 1e+037 0 0 empty empty Input 0 -8 0
10 -262144 -1 -1 0 256;
#X obj 211 277 nbx 5 14 -1e+037 1e+037 0 0 empty empty Output 0 -8
0 10 -262144 -1 -1 0 256;
#X obj 291 309 *;
#X obj 305 336 +;
#X obj 203 328 outlet;
#X text 176 127 game_value;
#X text 24 24 To recalculate the slope and \; y-intercept \, make sure
to send \; a bang to all the inlets a few times.;
#X floatatom 298 130 5 0 0 0 - - -;
#X obj 308 88 inlet;
#X obj 387 88 inlet;
#X obj 479 87 inlet;
#X obj 569 88 inlet;
#X text 301 64 input_x1;
#X text 387 66 input_x2;
#X text 569 66 output_y2;
#X text 479 65 output_y1;
#X connect 0 0 10 0;
#X connect 1 0 4 1;
#X connect 2 0 4 0;
#X connect 4 0 5 0;
#X connect 4 0 8 0;
#X connect 5 0 12 1;
#X connect 6 0 13 1;
#X connect 8 0 9 1;
#X connect 9 0 6 0;
#X connect 10 0 12 0;
#X connect 11 0 14 0;
#X connect 12 0 13 0;
#X connect 13 0 11 0;
#X connect 18 0 1 1;
#X connect 18 0 17 0;
#X connect 19 0 1 0;
#X connect 19 0 8 1;
#X connect 20 0 2 1;
#X connect 21 0 2 0;
#X connect 21 0 9 0;
#X coords 0 -1 1 1 200 100 1 200 200;
#X restore 80 263 pd in_to_out;
#X obj 128 383 hsl 128 15 1 0 0 0 empty empty Azimuth_(Left=0.75_Right=0.25)
-2 -8 0 10 -262144 -1 -1 0 1;
#X obj 125 404 nbx 5 14 -1e+037 1e+037 0 0 empty empty empty 0 -8 0
10 -262144 -1 -1 0 256;
#X msg 90 385 0.5;
#X msg 125 424 param_set 6 \$1;
#X msg 222 232 0.75;
#X msg 276 232 0.25;
#X obj 766 26 loadbang;
#X obj 67 187 r calc;
#X obj 766 81 s calc;
#X obj 400 184 r calc;
#X obj 877 78 bng 15 250 50 0 empty empty empty 17 7 0 10 -262144 -1
-1;
#X obj 777 53 delay 300;
#X obj 650 665 s~ dac_L;
#X obj 727 665 s~ dac_R;
#X obj 641 779 r~ dac_L;
#X obj 730 779 r~ dac_R;
#X obj 304 745 s~ plugin_L;
#X obj 404 745 s~ plugin_R;
#X obj 474 547 r~ plugin_L;
#X obj 587 547 r~ plugin_R;
#X obj 448 571 vstplugin~ -e StereoEncoder 2 16;
#X obj 436 612 vstplugin~ -e BinauralDecoder 16 2;
#X msg 534 228 0.25;
#X msg 588 228 0.75;
#X obj 276 87 osc/routeOSC /player /enemy;
#X msg 489 228 120;
#X msg 442 228 -140;
#X msg 116 232 -110;
#X msg 172 232 110;
#X text 59 105 /player stuff;
#X obj 820 141 unpack f f;
#X floatatom 818 187 5 0 0 0 - - -;
#X floatatom 1158 190 5 0 0 0 - - -;
#X text 1046 194 azimuth_right;
#X text 996 213 azimuth_left;
#X text 892 213 game_left;
#X text 941 196 game_right;
#X obj 861 220 bng 15 250 50 0 empty empty empty 17 7 0 10 -262144
-1 -1;
#X text 822 166 pos_x;
#X text 1154 167 pos_y;
#X obj 1253 386 hsl 128 15 0 1 0 0 empty empty Elevation_(Down=0.25_Up=0.75)
-2 -8 0 10 -262144 -1 -1 0 1;
#X obj 1250 407 nbx 5 14 -1e+037 1e+037 0 0 empty empty empty 0 -8
0 10 -262144 -1 -1 0 256;
#X obj 1199 222 bng 15 250 50 0 empty empty empty 17 7 0 10 -262144
-1 -1;
#X text 1366 195 elevation_high;
#X text 1315 216 elevation_low;
#X text 1277 193 game_high;
#X text 1223 214 game_low;
#N canvas 419 310 706 405 in_to_out 0;
#X obj 187 149 inlet;
#X obj 391 130 -;
#X obj 463 132 -;
#X text 283 166 Slope calculation;
#X obj 422 166 /;
#X obj 335 244 nbx 5 14 -1e+037 1e+037 0 0 empty empty Slope 0 -8 0
10 -262144 -1 -1 0.00192308 256;
#X obj 332 279 nbx 5 14 -1e+037 1e+037 0 0 empty empty Y-intercept
0 -8 0 10 -262144 -1 -1 0.519231 256;
#X text 503 198 Y-intercept \; calculation;
#X obj 474 193 *;
#X obj 438 218 -;
#X obj 211 242 nbx 5 14 -1e+037 1e+037 0 0 empty empty Input 0 -8 0
10 -262144 -1 -1 0 256;
#X obj 211 277 nbx 5 14 -1e+037 1e+037 0 0 empty empty Output 0 -8
0 10 -262144 -1 -1 0 256;
#X obj 291 309 *;
#X obj 305 336 +;
#X obj 203 328 outlet;
#X text 176 127 game_value;
#X text 24 24 To recalculate the slope and \; y-intercept \, make sure
to send \; a bang to all the inlets a few times.;
#X floatatom 298 130 5 0 0 0 - - -;
#X obj 308 88 inlet;
#X obj 387 88 inlet;
#X obj 479 87 inlet;
#X obj 569 88 inlet;
#X text 301 64 input_x1;
#X text 387 66 input_x2;
#X text 569 66 output_y2;
#X text 479 65 output_y1;
#X connect 0 0 10 0;
#X connect 1 0 4 1;
#X connect 2 0 4 0;
#X connect 4 0 5 0;
#X connect 4 0 8 0;
#X connect 5 0 12 1;
#X connect 6 0 13 1;
#X connect 8 0 9 1;
#X connect 9 0 6 0;
#X connect 10 0 12 0;
#X connect 11 0 14 0;
#X connect 12 0 13 0;
#X connect 13 0 11 0;
#X connect 18 0 1 1;
#X connect 18 0 17 0;
#X connect 19 0 1 0;
#X connect 19 0 8 1;
#X connect 20 0 2 1;
#X connect 21 0 2 0;
#X connect 21 0 9 0;
#X coords 0 -1 1 1 200 100 1 200 200;
#X restore 1202 265 pd in_to_out;
#X msg 1215 388 0.5;
#X msg 1250 427 param_set 7 \$1;
#N canvas 532 355 723 378 in_to_out 0;
#X obj 187 149 inlet;
#X obj 391 130 -;
#X obj 463 132 -;
#X text 283 166 Slope calculation;
#X obj 422 166 /;
#X obj 335 244 nbx 5 14 -1e+037 1e+037 0 0 empty empty Slope 0 -8 0
10 -262144 -1 -1 -0.00227273 256;
#X obj 332 279 nbx 5 14 -1e+037 1e+037 0 0 empty empty Y-intercept
0 -8 0 10 -262144 -1 -1 0.5 256;
#X text 503 198 Y-intercept \; calculation;
#X obj 474 193 *;
#X obj 438 218 -;
#X obj 211 242 nbx 5 14 -1e+037 1e+037 0 0 empty empty Input 0 -8 0
10 -262144 -1 -1 0 256;
#X obj 211 277 nbx 5 14 -1e+037 1e+037 0 0 empty empty Output 0 -8
0 10 -262144 -1 -1 0 256;
#X obj 291 309 *;
#X obj 305 336 +;
#X obj 203 328 outlet;
#X text 176 127 game_value;
#X text 24 24 To recalculate the slope and \; y-intercept \, make sure
to send \; a bang to all the inlets a few times.;
#X floatatom 298 130 5 0 0 0 - - -;
#X obj 308 88 inlet;
#X obj 387 88 inlet;
#X obj 479 87 inlet;
#X obj 569 88 inlet;
#X text 301 64 input_x1;
#X text 387 66 input_x2;
#X text 569 66 output_y2;
#X text 479 65 output_y1;
#X connect 0 0 10 0;
#X connect 1 0 4 1;
#X connect 2 0 4 0;
#X connect 4 0 5 0;
#X connect 4 0 8 0;
#X connect 5 0 12 1;
#X connect 6 0 13 1;
#X connect 8 0 9 1;
#X connect 9 0 6 0;
#X connect 10 0 12 0;
#X connect 11 0 14 0;
#X connect 12 0 13 0;
#X connect 13 0 11 0;
#X connect 18 0 1 1;
#X connect 18 0 17 0;
#X connect 19 0 1 0;
#X connect 19 0 8 1;
#X connect 20 0 2 1;
#X connect 21 0 2 0;
#X connect 21 0 9 0;
#X coords 0 -1 1 1 200 100 1 200 200;
#X restore 874 266 pd in_to_out;
#X obj 922 386 hsl 128 15 1 0 0 0 empty empty Azimuth_(Left=0.75_Right=0.25)
-2 -8 0 10 -262144 -1 -1 0 1;
#X obj 919 407 nbx 5 14 -1e+037 1e+037 0 0 empty empty empty 0 -8 0
10 -262144 -1 -1 0 256;
#X msg 884 388 0.5;
#X msg 919 427 param_set 6 \$1;
#X msg 1016 235 0.75;
#X msg 1070 235 0.25;
#X obj 861 190 r calc;
#X obj 1199 193 r calc;
#X msg 1339 237 0.25;
#X msg 1398 237 0.75;
#X msg 1290 237 120;
#X msg 1241 237 -140;
#X msg 910 235 -110;
#X msg 966 235 110;
#X text 800 114 /enemy stuff;
#X obj 125 449 s param_player;
#X obj 454 443 s param_player;
#X obj 448 510 r param_player;
#X obj 754 571 vstplugin~ -e StereoEncoder 2 16;
#X obj 742 612 vstplugin~ -e BinauralDecoder 16 2;
#X obj 919 452 s param_enemy;
#X obj 1253 452 s param_enemy;
#X obj 754 513 r param_enemy;
#X obj 779 547 r~ plugin_L2;
#X obj 893 547 r~ plugin_R2;
#N canvas 700 237 517 674 open 0;
#X obj 36 294 outlet~;
#X obj 91 294 outlet~;
#X obj 108 124 bng 15 250 50 0 empty empty file 17 7 0 10 -262144 -1
-1;
#X msg 36 64 symbol;
#X obj 36 40 loadbang;
#X obj 28 133 openpanel;
#X obj 108 145 bng 15 250 50 0 empty empty play 17 7 0 10 -4034 -1
-1;
#X obj 108 166 bng 15 250 50 0 empty empty stop 17 7 0 10 -258113 -1
-1;
#X obj 36 204 symbol;
#X obj 35 255 readsf~ 2;
#X obj 108 188 tgl 15 0 \$0-loop \$0-loop loop 17 7 0 10 -262144 -1
-1 0 1;
#X msg 120 227 0;
#X obj 112 256 spigot;
#X msg 35 227 open \$1 \, 1;
#X text 107 104 Player;
#X obj 151 235 r \$0-loop;
#X obj 316 107 inlet;
#X text 280 47 Convenient for \; opening a known \; sound file;
#X connect 2 0 5 0;
#X connect 4 0 3 0;
#X connect 5 0 8 1;
#X connect 6 0 8 0;
#X connect 7 0 11 0;
#X connect 8 0 13 0;
#X connect 9 0 0 0;
#X connect 9 1 1 0;
#X connect 9 2 12 0;
#X connect 11 0 9 0;
#X connect 12 0 8 0;
#X connect 13 0 9 0;
#X connect 15 0 12 1;
#X connect 16 0 8 1;
#X coords 0 -1 1 1 70 110 2 100 100;
#X restore 1056 596 pd open;
#X obj 1090 740 s~ plugin_L2;
#X obj 994 740 s~ plugin_R2;
#X msg 1056 570 symbol LOOP_test_stereo.wav;
#X text 37 626 The StereoEncoder parameters \; are 0 to 1 rather than
in \; degrees so I cmade a handy \; little converter for reference.
;
#X text 657 264 I'm going to make \; a cleaner subpatch \; to reduce
the amount \; of repetition all \; over the place.;
#X text 527 25 Bangs the values into all the \; pd in_to_out subpatches.
I use \; a delay so the loadbang sends \; "two" bangs instead of one.
;
#X text 880 59 Manual bang for later;
#X text 1137 607 I made a stereo track such that \; there's no inteference
between the \; left and right parts. In other \; words \, each side
is like its own track.;
#X text 603 461 I may be using send and receive \; objects a little
too much \, but \; I really like being able to move \; things freely.
;
#X text 307 779 I have a second file player \; subpatch for playing
a second \; audio file. Right now it's not \; being used. \; This Player
ubpatch is directly \; from the [vstplugin~] help file.;
#X text 796 888 This output subpatch is directly from the [vstplugin~]
help file.;
#X connect 0 0 52 0;
#X connect 1 0 2 0;
#X connect 1 1 3 0;
#X connect 2 0 27 0;
#X connect 3 0 23 0;
#X connect 4 0 0 0;
#X connect 13 0 55 0;
#X connect 13 0 56 0;
#X connect 13 0 33 0;
#X connect 13 0 32 0;
#X connect 16 0 17 0;
#X connect 17 0 25 0;
#X connect 18 0 54 0;
#X connect 18 0 53 0;
#X connect 18 0 50 0;
#X connect 18 0 51 0;
#X connect 23 0 16 0;
#X connect 24 0 17 0;
#X connect 25 0 95 0;
#X connect 27 0 28 0;
#X connect 28 0 29 0;
#X connect 29 0 31 0;
#X connect 30 0 29 0;
#X connect 31 0 94 0;
#X connect 32 0 27 3;
#X connect 33 0 27 4;
#X connect 34 0 36 0;
#X connect 34 0 39 0;
#X connect 35 0 13 0;
#X connect 37 0 18 0;
#X connect 38 0 36 0;
#X connect 38 0 39 0;
#X connect 39 0 36 0;
#X connect 42 0 8 0;
#X connect 43 0 8 1;
#X connect 46 0 48 0;
#X connect 47 0 48 1;
#X connect 48 0 49 0;
#X connect 48 1 49 1;
#X connect 48 2 49 2;
#X connect 48 3 49 3;
#X connect 48 4 49 4;
#X connect 48 5 49 5;
#X connect 48 6 49 6;
#X connect 48 7 49 7;
#X connect 48 8 49 8;
#X connect 48 9 49 9;
#X connect 48 10 49 10;
#X connect 48 11 49 11;
#X connect 48 12 49 12;
#X connect 48 13 49 13;
#X connect 48 14 49 14;
#X connect 48 15 49 15;
#X connect 49 0 40 0;
#X connect 49 1 41 0;
#X connect 50 0 23 3;
#X connect 51 0 23 4;
#X connect 52 0 1 0;
#X connect 52 1 58 0;
#X connect 53 0 23 2;
#X connect 54 0 23 1;
#X connect 55 0 27 1;
#X connect 56 0 27 2;
#X connect 58 0 59 0;
#X connect 58 1 60 0;
#X connect 59 0 78 0;
#X connect 60 0 75 0;
#X connect 65 0 91 0;
#X connect 65 0 92 0;
#X connect 65 0 84 0;
#X connect 65 0 83 0;
#X connect 68 0 69 0;
#X connect 69 0 77 0;
#X connect 70 0 90 0;
#X connect 70 0 89 0;
#X connect 70 0 87 0;
#X connect 70 0 88 0;
#X connect 75 0 68 0;
#X connect 76 0 69 0;
#X connect 77 0 100 0;
#X connect 78 0 79 0;
#X connect 79 0 80 0;
#X connect 80 0 82 0;
#X connect 81 0 80 0;
#X connect 82 0 99 0;
#X connect 83 0 78 3;
#X connect 84 0 78 4;
#X connect 85 0 65 0;
#X connect 86 0 70 0;
#X connect 87 0 75 3;
#X connect 88 0 75 4;
#X connect 89 0 75 2;
#X connect 90 0 75 1;
#X connect 91 0 78 1;
#X connect 92 0 78 2;
#X connect 96 0 48 0;
#X connect 97 0 98 0;
#X connect 97 1 98 1;
#X connect 97 2 98 2;
#X connect 97 3 98 3;
#X connect 97 4 98 4;
#X connect 97 5 98 5;
#X connect 97 6 98 6;
#X connect 97 7 98 7;
#X connect 97 8 98 8;
#X connect 97 9 98 9;
#X connect 97 10 98 10;
#X connect 97 11 98 11;
#X connect 97 12 98 12;
#X connect 97 13 98 13;
#X connect 97 14 98 14;
#X connect 97 15 98 15;
#X connect 98 0 40 0;
#X connect 98 1 41 0;
#X connect 101 0 97 0;
#X connect 102 0 97 0;
#X connect 103 0 97 1;
#X connect 104 0 44 0;
#X connect 104 0 45 0;
#X connect 104 1 106 0;
#X connect 104 1 105 0;
#X connect 107 0 104 0;
