#N canvas 805 16 960 562 12;
#X obj 62 53 osc/unpackOSC;
#X obj 62 17 iemnet/udpreceive 6449;
#X text 254 6 Listen for OSC message \; from the specified port.;
#X text 190 44 Convert the mess of numbers into \; something that's
human-readable.;
#N canvas 700 237 517 674 open 0;
#X obj 36 294 outlet~;
#X obj 91 294 outlet~;
#X obj 108 124 bng 15 250 50 0 empty empty file 17 7 0 10 -262144 -1
-1;
#X msg 36 64 symbol;
#X obj 36 40 loadbang;
#X obj 28 133 openpanel;
#X obj 108 145 bng 15 250 50 0 empty empty play 17 7 0 10 -4034 -1
-1;
#X obj 108 166 bng 15 250 50 0 empty empty stop 17 7 0 10 -258113 -1
-1;
#X obj 36 204 symbol;
#X obj 35 255 readsf~ 2;
#X obj 108 188 tgl 15 0 \$0-loop \$0-loop loop 17 7 0 10 -262144 -1
-1 0 1;
#X msg 120 227 0;
#X obj 112 256 spigot;
#X msg 35 227 open \$1 \, 1;
#X text 107 104 Player;
#X obj 151 235 r \$0-loop;
#X obj 316 107 inlet;
#X text 280 47 Convenient for \; opening a known \; sound file;
#X connect 2 0 5 0;
#X connect 4 0 3 0;
#X connect 5 0 8 1;
#X connect 6 0 8 0;
#X connect 7 0 11 0;
#X connect 8 0 13 0;
#X connect 9 0 0 0;
#X connect 9 1 1 0;
#X connect 9 2 12 0;
#X connect 11 0 9 0;
#X connect 12 0 8 0;
#X connect 13 0 9 0;
#X connect 15 0 12 1;
#X connect 16 0 8 1;
#X coords 0 -1 1 1 70 110 2 100 100;
#X restore 881 543 pd open;
#N canvas 537 331 334 485 output 0;
#X obj 109 258 nbx 5 14 -100 0 0 0 \$0-vol \$0-vol Volume 0 -8 0 10
-262144 -1 -1 0 256;
#X obj 170 257 tgl 15 0 \$0-dsp \$0-dsp DSP 17 7 0 10 -262144 -1 -1
1 1;
#X obj 4 34 inlet~;
#X obj 54 35 inlet~;
#X obj 4 454 dac~;
#X obj 5 420 *~;
#X obj 56 422 *~;
#X obj 71 399 line~;
#X msg 73 377 \$1 50;
#X obj 108 32 loadbang;
#X msg 146 332 \; pd dsp \$1;
#X obj 136 114 vu 15 120 empty empty -1 -8 0 10 -66577 -1 1 0;
#X obj 193 116 vu 15 120 empty empty -1 -8 0 10 -66577 -1 1 0;
#X obj 12 78 env~;
#X obj 60 77 env~;
#X obj 12 99 - 100;
#X obj 61 102 - 100;
#X obj 110 110 vsl 15 128 0 1 0 0 \$0-fader \$0-fader empty 0 -9 0
10 -262144 -1 -1 12700 1;
#X obj 146 309 r \$0-dsp;
#X msg 108 53 0;
#X obj 108 74 s \$0-fader;
#X obj 74 309 r \$0-fader;
#X obj 73 329 pow 2;
#X obj 116 378 rmstodb;
#X obj 116 399 - 100;
#X obj 116 420 s \$0-vol;
#X obj 73 350 t f f;
#X connect 2 0 5 0;
#X connect 2 0 13 0;
#X connect 3 0 6 0;
#X connect 3 0 14 0;
#X connect 5 0 4 0;
#X connect 6 0 4 1;
#X connect 7 0 5 1;
#X connect 7 0 6 1;
#X connect 8 0 7 0;
#X connect 9 0 19 0;
#X connect 13 0 15 0;
#X connect 14 0 16 0;
#X connect 15 0 11 0;
#X connect 16 0 12 0;
#X connect 18 0 10 0;
#X connect 19 0 20 0;
#X connect 21 0 22 0;
#X connect 22 0 26 0;
#X connect 23 0 24 0;
#X connect 24 0 25 0;
#X connect 26 0 8 0;
#X connect 26 1 23 0;
#X coords 0 -1 1 1 150 180 2 100 100;
#X restore 735 82 pd output;
#X msg 205 341 param_set 7 \$1;
#N canvas 669 453 772 436 degree_to_decimal 0;
#X obj 92 120 hsl 180 15 -180 180 0 0 empty empty Degree -2 -8 0 10
-262144 -1 -1 0 1;
#X obj 92 160 hsl 180 15 0 1 0 0 empty empty Decimal -2 -8 0 10 -262144
-1 -1 0 1;
#X obj 139 103 nbx 5 14 -1e+037 1e+037 0 0 empty empty empty 0 -8 0
10 -262144 -1 -1 0 256;
#X obj 139 143 nbx 5 14 -1e+037 1e+037 0 0 empty empty empty 0 -8 0
10 -262144 -1 -1 0 256;
#X obj 286 104 - 180;
#X obj 286 81 * 360;
#X text 256 44 Decimal \; to degrees;
#X text 35 42 Degree \; to decimal;
#X obj 37 101 / 360;
#X obj 37 78 + 180;
#X connect 0 0 2 0;
#X connect 0 0 9 0;
#X connect 1 0 3 0;
#X connect 5 0 4 0;
#X connect 8 0 1 0;
#X connect 9 0 8 0;
#X coords 0 -1 1 1 200 100 1 80 80;
#X restore 566 657 pd degree_to_decimal;
#X obj 65 314 hsl 128 15 1 0 0 0 empty empty Azimuth_(Left=0.75_Right=0.25)
-2 -8 0 10 -262144 -1 -1 6148 1;
#X msg 62 339 param_set 6 \$1;
#X obj 602 24 bng 15 250 50 0 empty empty empty 17 7 0 10 -262144 -1
-1;
#X obj 377 549 s~ dac_L;
#X obj 494 549 s~ dac_R;
#X obj 736 58 r~ dac_L;
#X obj 825 58 r~ dac_R;
#X obj 56 663 s~ plugin_L;
#X obj 170 427 r~ plugin_L;
#X obj 260 427 r~ plugin_R;
#X obj 113 457 vstplugin~ -e StereoEncoder 2 16;
#X obj 112 488 vstplugin~ -e BinauralDecoder 16 2;
#X obj 62 364 s param_player;
#X obj 205 366 s param_player;
#X obj 113 403 r param_player;
#N canvas 700 237 517 674 open 0;
#X obj 36 294 outlet~;
#X obj 91 294 outlet~;
#X obj 108 124 bng 15 250 50 0 empty empty file 17 7 0 10 -262144 -1
-1;
#X msg 36 64 symbol;
#X obj 36 40 loadbang;
#X obj 28 133 openpanel;
#X obj 108 145 bng 15 250 50 0 empty empty play 17 7 0 10 -4034 -1
-1;
#X obj 108 166 bng 15 250 50 0 empty empty stop 17 7 0 10 -258113 -1
-1;
#X obj 36 204 symbol;
#X obj 35 255 readsf~ 2;
#X obj 108 188 tgl 15 0 \$0-loop \$0-loop loop 17 7 0 10 -262144 -1
-1 0 1;
#X msg 120 227 0;
#X obj 112 256 spigot;
#X msg 35 227 open \$1 \, 1;
#X text 107 104 Player;
#X obj 151 235 r \$0-loop;
#X obj 316 107 inlet;
#X text 280 47 Convenient for \; opening a known \; sound file;
#X connect 2 0 5 0;
#X connect 4 0 3 0;
#X connect 5 0 8 1;
#X connect 6 0 8 0;
#X connect 7 0 11 0;
#X connect 8 0 13 0;
#X connect 9 0 0 0;
#X connect 9 1 1 0;
#X connect 9 2 12 0;
#X connect 11 0 9 0;
#X connect 12 0 8 0;
#X connect 13 0 9 0;
#X connect 15 0 12 1;
#X connect 16 0 8 1;
#X coords 0 -1 1 1 70 110 2 100 100;
#X restore 56 537 pd open;
#X text 329 691 The StereoEncoder parameters \; are 0 to 1 rather than
in \; degrees so I cmade a handy \; little converter for reference.
;
#N canvas 308 339 764 254 XY_to_AziEle 0;
#X obj 94 50 inlet;
#X obj 94 130 nbx 5 14 -1e+037 1e+037 0 0 empty empty Pos_X 0 -8 0
10 -262144 -1 -1 -7 256;
#X obj 94 160 nbx 5 14 -1e+037 1e+037 0 0 empty empty Azimuth 0 -8
0 10 -262144 -1 -1 0.515909 256;
#X obj 236 92 *;
#X obj 267 116 +;
#X obj 267 152 outlet;
#X text 77 16 game \; X_position;
#X obj 164 50 inlet;
#X obj 164 130 nbx 5 14 -1e+037 1e+037 0 0 empty empty Pos_Y 0 -8 0
10 -262144 -1 -1 54 256;
#X obj 164 160 nbx 5 14 -1e+037 1e+037 0 0 empty empty Elevation 0
-8 0 10 -262144 -1 -1 0.623077 256;
#X obj 299 92 *;
#X obj 331 116 +;
#X obj 331 152 outlet;
#X text 157 16 game \; Y_position;
#X obj 254 20 inlet;
#X obj 254 64 unpack f f f f;
#X text 509 57 (Y to Elevation) \; slope y-int;
#X text 379 57 (X to Azimuth) \; slope y-int;
#X text 309 19 <- This inlet should receive a [pack] of the following
parameters AND in the order they are shown.;
#X connect 0 0 1 0;
#X connect 0 0 3 0;
#X connect 3 0 4 0;
#X connect 4 0 5 0;
#X connect 4 0 2 0;
#X connect 7 0 8 0;
#X connect 7 0 10 0;
#X connect 10 0 11 0;
#X connect 11 0 12 0;
#X connect 11 0 9 0;
#X connect 14 0 15 0;
#X connect 15 0 3 1;
#X connect 15 1 4 1;
#X connect 15 2 10 1;
#X connect 15 3 11 1;
#X coords 0 -1 1 1 150 80 1 80 100;
#X restore 62 201 pd XY_to_AziEle;
#X obj 152 176 r values;
#X text 727 20 This output subpatch is directly from \; the [vstplugin~]
help file.;
#X obj 62 176 unpack f f;
#N canvas 549 325 882 478 constants 0;
#X obj 20 24 inlet;
#X obj 97 24 loadbang;
#X obj 20 64 delay 300;
#X text 191 18 Bangs the values into all the \; pd in_to_out subpatches.
I use \; a delay so the loadbang sends \; "two" bangs instead of one.
;
#X text 102 265 azimuth_right;
#X text 88 242 azimuth_left;
#X text 66 195 game_left;
#X text 73 218 game_right;
#X text 325 265 elevation_high;
#X text 304 242 elevation_low;
#X text 282 218 game_high;
#X text 279 195 game_low;
#X msg 53 243 0.75;
#X msg 67 266 0.25;
#X msg 269 243 0.25;
#X msg 292 266 0.75;
#X msg 254 219 120;
#X msg 241 196 -140;
#X msg 30 196 -110;
#X msg 42 219 110;
#X obj 30 309 pack f f f f f f f f;
#X text 204 137 Left/right/high/low bounds for \; the game's XY values
and the \; plugin's to azimuth and elevation;
#N canvas 732 295 622 501 calc_slope_y-int 0;
#X obj 47 202 -;
#X obj 78 202 -;
#X obj 47 233 /;
#X obj 146 383 nbx 5 14 -1e+037 1e+037 0 0 empty empty Azi_slope 0
-8 0 10 -262144 -1 -1 -0.00227273 256;
#X obj 146 414 nbx 5 14 -1e+037 1e+037 0 0 empty empty Azi_y-int 0
-8 0 10 -262144 -1 -1 0.5 256;
#X obj 109 202 *;
#X obj 109 233 -;
#X obj 172 202 -;
#X obj 203 202 -;
#X obj 172 233 /;
#X obj 220 383 nbx 5 14 -1e+037 1e+037 0 0 empty empty Ele_slope 0
-8 0 10 -262144 -1 -1 0.00192308 256;
#X obj 220 414 nbx 5 14 -1e+037 1e+037 0 0 empty empty Ele_y-int 0
-8 0 10 -262144 -1 -1 0.519231 256;
#X obj 234 202 *;
#X obj 234 233 -;
#X obj 65 147 unpack f f f f f f f f;
#X text 125 85 game \; left \; bound;
#X text 176 85 game \; right \; bound;
#X text 225 85 azimuth \; left \; bound;
#X text 284 85 azimuth \; right \; bound;
#X text 366 85 game \; low \; bound;
#X text 420 85 game \; high \; bound;
#X text 466 99 elevation \; low bound;
#X text 542 99 elevation \; high bound;
#X obj 65 19 inlet;
#X text 126 12 <- This inlet should receive a [pack] of the following
parameters AND in the order they are shown. Also \, make sure to bang
the received [pack] of parameters TWICE to update the calculated linear
relationships.;
#X obj 104 293 outlet;
#X obj 104 263 pack f f f f;
#X text 206 270 Calculates the slopes and y-intercepts \; These calculated
values will then be sent \; to the [XY_to_AziEle] subpatches.;
#X connect 0 0 2 1;
#X connect 1 0 2 0;
#X connect 2 0 3 0;
#X connect 2 0 5 0;
#X connect 2 0 26 0;
#X connect 5 0 6 1;
#X connect 6 0 4 0;
#X connect 6 0 26 1;
#X connect 7 0 9 1;
#X connect 8 0 9 0;
#X connect 9 0 10 0;
#X connect 9 0 12 0;
#X connect 9 0 26 2;
#X connect 12 0 13 1;
#X connect 13 0 11 0;
#X connect 13 0 26 3;
#X connect 14 0 0 1;
#X connect 14 1 0 0;
#X connect 14 1 5 1;
#X connect 14 2 1 1;
#X connect 14 3 1 0;
#X connect 14 3 6 0;
#X connect 14 4 7 1;
#X connect 14 5 7 0;
#X connect 14 5 12 1;
#X connect 14 6 8 1;
#X connect 14 7 8 0;
#X connect 14 7 13 0;
#X connect 23 0 14 0;
#X connect 26 0 25 0;
#X coords 0 -1 1 1 140 85 1 140 350;
#X restore 30 337 pd calc_slope_y-int;
#X obj 30 431 s values;
#X text 172 350 The boundary values are packed and \; sent to [calc_slope_y-int]
subpatch.;
#X obj 125 160 r bigbang;
#X obj 97 93 s bigbang;
#X obj 567 15 r bigbang;
#X text 650 52 RIGHT ledge \; position (X \, Y);
#X text 495 51 LEFT ledge \; position (X \, Y);
#X msg 587 88 0;
#X msg 741 88 0;
#X msg 539 88 -68.4;
#X msg 699 88 68.4;
#X connect 0 0 2 0;
#X connect 0 0 26 0;
#X connect 1 0 2 0;
#X connect 1 0 26 0;
#X connect 2 0 26 0;
#X connect 12 0 20 2;
#X connect 13 0 20 3;
#X connect 14 0 20 6;
#X connect 15 0 20 7;
#X connect 16 0 20 5;
#X connect 17 0 20 4;
#X connect 18 0 20 0;
#X connect 19 0 20 1;
#X connect 20 0 22 0;
#X connect 22 0 23 0;
#X connect 25 0 18 0;
#X connect 25 0 19 0;
#X connect 25 0 12 0;
#X connect 25 0 13 0;
#X connect 25 0 17 0;
#X connect 25 0 16 0;
#X connect 25 0 14 0;
#X connect 25 0 15 0;
#X connect 27 0 32 0;
#X connect 27 0 30 0;
#X connect 27 0 33 0;
#X connect 27 0 31 0;
#X restore 602 46 pd constants;
#X text 476 17 Manual bang to \; recalculate the \; slopes / y-ints
;
#X text 60 151 /playerState;
#X text 281 136 /playerInput;
#N canvas 851 501 664 472 buttons 0;
#X obj 22 63 unpack f f f f f f f f f f f f f f f f f;
#X obj 22 87 s button_A;
#X obj 39 110 s button_B;
#X obj 56 133 s button_X;
#X obj 73 156 s button_Y;
#X obj 91 179 s button_Z;
#X obj 108 202 s button_L;
#X obj 125 225 s button_R;
#X obj 143 89 s button_D_up;
#X obj 161 112 s button_D_down;
#X obj 177 135 s button_D_left;
#X obj 195 159 s button_D_right;
#X obj 230 225 s main_y;
#X obj 212 202 s main_x;
#X obj 247 249 s C_x;
#X obj 264 272 s C_y;
#X obj 281 88 s L_shoulder;
#X obj 299 111 s R_shoulder;
#X obj 22 11 inlet;
#X text 71 14 receives list of inputs as booleans/ints \; (total of
17);
#X connect 0 0 1 0;
#X connect 0 1 2 0;
#X connect 0 2 3 0;
#X connect 0 3 4 0;
#X connect 0 4 5 0;
#X connect 0 5 6 0;
#X connect 0 6 7 0;
#X connect 0 7 8 0;
#X connect 0 8 9 0;
#X connect 0 9 10 0;
#X connect 0 10 11 0;
#X connect 0 11 13 0;
#X connect 0 12 12 0;
#X connect 0 13 14 0;
#X connect 0 14 15 0;
#X connect 0 15 16 0;
#X connect 0 16 17 0;
#X connect 18 0 0 0;
#X restore 279 158 pd buttons;
#X obj 62 87 osc/routeOSC /playerState /playerInput /platforms;
#X obj 245 202 vsl 15 128 0 1 0 0 empty empty Elevation_(Down=0.25_Up=0.75)
0 -9 0 10 -262144 -1 -1 7913 1;
#X text 499 136 /platforms;
#N canvas 182 254 702 545 ping_platforms 0;
#X obj 198 88 inlet;
#X obj 198 116 unpack f f f f f f;
#X obj 48 10 r button_D_down;
#N canvas 308 339 764 254 XY_to_AziEle 0;
#X obj 94 50 inlet;
#X obj 94 130 nbx 5 14 -1e+037 1e+037 0 0 empty empty Pos_X 0 -8 0
10 -262144 -1 -1 38.8 256;
#X obj 94 160 nbx 5 14 -1e+037 1e+037 0 0 empty empty Azimuth 0 -8
0 10 -262144 -1 -1 0.411818 256;
#X obj 236 92 *;
#X obj 267 116 +;
#X obj 267 152 outlet;
#X text 77 16 game \; X_position;
#X obj 164 50 inlet;
#X obj 164 130 nbx 5 14 -1e+037 1e+037 0 0 empty empty Pos_Y 0 -8 0
10 -262144 -1 -1 27.2 256;
#X obj 164 160 nbx 5 14 -1e+037 1e+037 0 0 empty empty Elevation 0
-8 0 10 -262144 -1 -1 0.571538 256;
#X obj 299 92 *;
#X obj 331 116 +;
#X obj 331 152 outlet;
#X text 157 16 game \; Y_position;
#X obj 254 20 inlet;
#X obj 254 64 unpack f f f f;
#X text 509 57 (Y to Elevation) \; slope y-int;
#X text 379 57 (X to Azimuth) \; slope y-int;
#X text 309 19 <- This inlet should receive a [pack] of the following
parameters AND in the order they are shown.;
#X connect 0 0 1 0;
#X connect 0 0 3 0;
#X connect 3 0 4 0;
#X connect 4 0 5 0;
#X connect 4 0 2 0;
#X connect 7 0 8 0;
#X connect 7 0 10 0;
#X connect 10 0 11 0;
#X connect 11 0 12 0;
#X connect 11 0 9 0;
#X connect 14 0 15 0;
#X connect 15 0 3 1;
#X connect 15 1 4 1;
#X connect 15 2 10 1;
#X connect 15 3 11 1;
#X coords 0 -1 1 1 150 80 1 80 100;
#X restore 162 310 pd XY_to_AziEle;
#X obj 89 219 f;
#X obj 121 219 f;
#X obj 193 219 f;
#X obj 223 219 f;
#X obj 311 223 f;
#X obj 341 223 f;
#X obj 314 452 vstplugin~ -e StereoEncoder 2 16;
#X obj 313 483 vstplugin~ -e BinauralDecoder 16 2;
#X msg 305 400 param_set 7 \$1;
#X msg 162 400 param_set 6 \$1;
#X obj 314 523 outlet~;
#X obj 430 523 outlet~;
#N canvas 700 237 492 358 open 0;
#X obj 36 294 outlet~;
#X obj 91 294 outlet~;
#X obj 108 124 bng 15 250 50 0 empty empty file 17 7 0 10 -262144 -1
-1;
#X msg 36 64 symbol;
#X obj 36 40 loadbang;
#X obj 28 133 openpanel;
#X obj 108 145 bng 15 250 50 0 empty empty play 17 7 0 10 -4034 -1
-1;
#X obj 108 166 bng 15 250 50 0 empty empty stop 17 7 0 10 -258113 -1
-1;
#X obj 36 204 symbol;
#X obj 35 255 readsf~ 2;
#X obj 108 188 tgl 15 0 \$0-loop \$0-loop loop 17 7 0 10 -262144 -1
-1 0 1;
#X msg 120 227 0;
#X obj 112 256 spigot;
#X msg 35 227 open \$1 \, 1;
#X text 107 104 Player;
#X obj 151 235 r \$0-loop;
#X obj 245 73 inlet;
#X text 216 22 Convenient for \; opening a known \; sound file;
#X obj 358 79 inlet;
#X text 346 56 triggers play;
#X connect 2 0 5 0;
#X connect 4 0 3 0;
#X connect 5 0 8 1;
#X connect 6 0 8 0;
#X connect 7 0 11 0;
#X connect 8 0 13 0;
#X connect 9 0 0 0;
#X connect 9 1 1 0;
#X connect 9 2 12 0;
#X connect 11 0 9 0;
#X connect 12 0 8 0;
#X connect 13 0 9 0;
#X connect 15 0 12 1;
#X connect 16 0 8 1;
#X connect 18 0 6 0;
#X coords 0 -1 1 1 70 110 2 100 100;
#X restore 447 318 pd open;
#X msg 447 240 symbol mhands0c.wav;
#X obj 48 102 bng 15 250 50 0 empty empty empty 17 7 0 10 -262144 -1
-1;
#X obj 109 102 bng 15 250 50 0 empty empty empty 17 7 0 10 -262144
-1 -1;
#X obj 78 102 bng 15 250 50 0 empty empty empty 17 7 0 10 -262144 -1
-1;
#X obj 14 247 del 300;
#X obj 31 279 del 300;
#X floatatom 6 70 5 0 0 0 - - -;
#X obj 48 70 spigot;
#X obj 48 35 change;
#X obj 305 287 r values;
#X text 241 48 Receives list platform \; XY coordinates. Will be \;
Left-Top-Right or R-T-L \; depending on character position.;
#X text 334 116 Format: X \, Y \, X \, Y \, X \, Y;
#X text 5 305 Delays between \; each coordinate \; being sent to \;
the plugin.;
#X text 526 325 Each of the three \; bangs triggers the \; sound file
to play.;
#X text 167 6 This subpatch runs when the D-pad Down is \; released
after being pressed.;
#X connect 0 0 1 0;
#X connect 1 0 4 1;
#X connect 1 1 5 1;
#X connect 1 2 6 1;
#X connect 1 3 7 1;
#X connect 1 4 8 1;
#X connect 1 5 9 1;
#X connect 2 0 25 0;
#X connect 3 0 13 0;
#X connect 3 1 12 0;
#X connect 4 0 3 0;
#X connect 4 0 16 1;
#X connect 5 0 3 1;
#X connect 6 0 3 0;
#X connect 6 0 16 1;
#X connect 7 0 3 1;
#X connect 8 0 3 0;
#X connect 8 0 16 1;
#X connect 9 0 3 1;
#X connect 10 0 11 0;
#X connect 10 1 11 1;
#X connect 10 2 11 2;
#X connect 10 3 11 3;
#X connect 10 4 11 4;
#X connect 10 5 11 5;
#X connect 10 6 11 6;
#X connect 10 7 11 7;
#X connect 10 8 11 8;
#X connect 10 9 11 9;
#X connect 10 10 11 10;
#X connect 10 11 11 11;
#X connect 10 12 11 12;
#X connect 10 13 11 13;
#X connect 10 14 11 14;
#X connect 10 15 11 15;
#X connect 11 0 14 0;
#X connect 11 1 15 0;
#X connect 12 0 10 0;
#X connect 13 0 10 0;
#X connect 16 0 10 0;
#X connect 16 1 10 1;
#X connect 17 0 16 0;
#X connect 18 0 4 0;
#X connect 18 0 5 0;
#X connect 18 0 21 0;
#X connect 19 0 8 0;
#X connect 19 0 9 0;
#X connect 20 0 6 0;
#X connect 20 0 7 0;
#X connect 20 0 22 0;
#X connect 21 0 20 0;
#X connect 22 0 19 0;
#X connect 24 0 18 0;
#X connect 25 0 23 0;
#X connect 25 0 24 0;
#X connect 25 0 24 1;
#X connect 26 0 3 2;
#X coords 0 -1 1 1 90 40 1 40 80;
#X restore 492 158 pd ping_platforms;
#X obj 140 663 s~ plugin_R;
#X connect 0 0 34 0;
#X connect 1 0 0 0;
#X connect 6 0 21 0;
#X connect 9 0 20 0;
#X connect 10 0 29 0;
#X connect 13 0 5 0;
#X connect 14 0 5 1;
#X connect 16 0 18 0;
#X connect 17 0 18 1;
#X connect 18 0 19 0;
#X connect 18 1 19 1;
#X connect 18 2 19 2;
#X connect 18 3 19 3;
#X connect 18 4 19 4;
#X connect 18 5 19 5;
#X connect 18 6 19 6;
#X connect 18 7 19 7;
#X connect 18 8 19 8;
#X connect 18 9 19 9;
#X connect 18 10 19 10;
#X connect 18 11 19 11;
#X connect 18 12 19 12;
#X connect 18 13 19 13;
#X connect 18 14 19 14;
#X connect 18 15 19 15;
#X connect 19 0 11 0;
#X connect 19 1 12 0;
#X connect 22 0 18 0;
#X connect 23 0 15 0;
#X connect 23 1 38 0;
#X connect 25 0 8 0;
#X connect 25 0 9 0;
#X connect 25 1 6 0;
#X connect 25 1 35 0;
#X connect 26 0 25 2;
#X connect 28 0 25 0;
#X connect 28 1 25 1;
#X connect 34 0 28 0;
#X connect 34 1 33 0;
#X connect 34 2 37 0;
#X connect 37 0 11 0;
#X connect 37 1 12 0;
